<?xml version="1.0" encoding="UTF-8"?><svg id="Layer_2" xmlns="http://www.w3.org/2000/svg" xmlns:xlink="http://www.w3.org/1999/xlink" viewBox="0 0 271.5 249.74"><defs><style>.cls-1{fill:url(#linear-gradient-2);}.cls-2{fill:#fff;}.cls-3{stroke-width:5px;}.cls-3,.cls-4,.cls-5{fill:none;}.cls-3,.cls-5{stroke:#fff;stroke-linecap:round;stroke-linejoin:round;}.cls-6{fill:url(#linear-gradient-3);}.cls-7{fill:#0078d4;}.cls-8{fill:url(#linear-gradient);}.cls-5{stroke-width:4px;}</style><linearGradient id="linear-gradient" x1="118.59" y1="251.25" x2="118.05" y2="14.29" gradientTransform="matrix(1, 0, 0, 1, 0, 0)" gradientUnits="userSpaceOnUse"><stop offset="0" stop-color="#89d5ff"/><stop offset="1" stop-color="#00aeef"/></linearGradient><linearGradient id="linear-gradient-2" x1="201.4" y1="22.03" x2="217.8" y2="38.37" gradientTransform="matrix(1, 0, 0, 1, 0, 0)" gradientUnits="userSpaceOnUse"><stop offset="0" stop-color="#00aeef"/><stop offset=".86" stop-color="#2892df"/></linearGradient><linearGradient id="linear-gradient-3" x1="236.33" y1="47.85" x2="260.96" y2="47.85" gradientTransform="matrix(1, 0, 0, 1, 0, 0)" gradientUnits="userSpaceOnUse"><stop offset="0" stop-color="#013f61"/><stop offset="1" stop-color="#00517d"/></linearGradient></defs><g id="Layer_1-2"><path class="cls-8" d="M45.44,12.95H120.03c64.44,0,116.76,52.32,116.76,116.76v3.27c0,64.44-52.32,116.76-116.76,116.76H45.44C20.36,249.74,0,229.38,0,204.31V58.39C0,33.31,20.36,12.95,45.44,12.95Z"/><g><circle class="cls-2" cx="225.35" cy="46.15" r="46.15"/><g><g><path class="cls-1" d="M243.77,15.66c-5.37-3.25-11.67-5.12-18.41-5.12-19.67,0-35.61,15.94-35.61,35.61,0,6.28,1.63,12.19,4.48,17.31L243.77,15.66Z"/><g><path class="cls-6" d="M236.33,22.84l7.43-7.17c10.31,6.24,17.2,17.56,17.2,30.48,0,15.84-10.34,29.26-24.63,33.88V22.84Z"/><path class="cls-7" d="M236.33,22.84l-42.1,40.63c6.08,10.91,17.74,18.3,31.12,18.3,3.83,0,7.52-.61,10.98-1.72V22.84Z"/></g><line class="cls-4" x1="194.23" y1="63.46" x2="243.77" y2="15.66"/></g><path class="cls-2" d="M227.97,30.91v7.61l.02,.03c-1.36-2.44-3.76-3.66-7.2-3.66-3.64,0-6.58,1.32-8.82,3.95-2.24,2.63-3.37,6.13-3.37,10.5s1.02,7.43,3.05,9.76c2.04,2.33,4.72,3.5,8.06,3.5,3.64,0,6.39-1.43,8.27-4.28h.1v3.64h8.25V22.84l-8.37,8.07Zm.28,18.19c0,2.18-.53,3.94-1.58,5.26-1.05,1.32-2.41,1.99-4.08,1.99-1.76,0-3.13-.63-4.12-1.88-.99-1.26-1.49-3.04-1.49-5.37,0-2.48,.51-4.42,1.54-5.84,1.03-1.42,2.45-2.13,4.28-2.13,1.62,0,2.93,.57,3.94,1.7,1.01,1.13,1.51,2.56,1.51,4.28v1.99Z"/></g></g><g><rect class="cls-3" x="38.73" y="77.95" width="138.66" height="112.04" rx="8" ry="8"/><line class="cls-3" x1="38.73" y1="163.91" x2="177.39" y2="163.91"/><line class="cls-3" x1="38.73" y1="104.16" x2="177.39" y2="104.16"/><g><line class="cls-5" x1="168.11" y1="87.09" x2="160.47" y2="94.73"/><line class="cls-5" x1="168.11" y1="94.91" x2="160.38" y2="87.18"/></g><line class="cls-5" x1="51.34" y1="117.34" x2="163.99" y2="117.34"/><line class="cls-5" x1="51.34" y1="90.91" x2="94.72" y2="90.91"/><line class="cls-5" x1="51.34" y1="134.24" x2="151.65" y2="134.24"/><line class="cls-5" x1="51.34" y1="151.05" x2="163.99" y2="151.05"/><rect class="cls-2" x="147.24" y="173.04" width="20.87" height="7.73" rx="3.86" ry="3.86"/></g></g></svg>